<?xml version="1.0" encoding="UTF-8" standalone="no"?>
<svg
   width="764.41101"
   height="583.09998"
   id="SvgjsSvg1001"
   overflow="hidden"
   version="1.1"
   sodipodi:docname="da0f3c1c849b4c23800107b48dc7867f.svg"
   xmlns:inkscape="http://www.inkscape.org/namespaces/inkscape"
   xmlns:sodipodi="http://sodipodi.sourceforge.net/DTD/sodipodi-0.dtd"
   xmlns="http://www.w3.org/2000/svg"
   xmlns:svg="http://www.w3.org/2000/svg">
  <sodipodi:namedview
     id="namedview67"
     pagecolor="#ffffff"
     bordercolor="#666666"
     borderopacity="1.0"
     inkscape:pageshadow="2"
     inkscape:pageopacity="0.0"
     inkscape:pagecheckerboard="0" />
  <defs
     id="SvgjsDefs1002" />
  <g
     id="SvgjsG1008">
    <svg
       width="288"
       height="288"
       viewBox="0 0 764.4 583"
       overflow="hidden"
       version="1.1"
       id="svg63">
      <path
         d="m 411.7,245.7 c -1.5,27.5 -3.3,60.9 -3.3,60.9 2.7,8.8 3.9,18.1 3.4,27.3 18,2.5 44.7,27 55.4,40.9 16.6,21.5 31,50.2 41,86.6 10,36.4 20.3,53 25.2,52.8 4.9,-0.2 12.4,-7.2 16.4,-24.3 4,-17.1 3.8,-32.9 4.5,-47.7 0.3,-5.8 -0.8,-15.7 3.6,-20.3 1.3,-1.3 3.1,-2.2 4.9,-2.6 l -0.9,-0.2 c 0,0 -3.8,-27.9 3.5,-33.8 0.5,-0.4 1,-0.8 1.6,-1.1 l -0.5,-3.1 v -12.8 c -18,-10.3 -26.5,-34.8 -16.4,-53 v -8.5 c -5,1.4 -10,2.4 -15.1,3.1 -13.5,1.9 -27.6,1.3 -40.4,-4.5 -11.9,-5.4 -22.1,-13.9 -32.1,-22.7 -10.4,-9.3 -20.7,-18.9 -32.2,-26.6 -5.8,-3.9 -12.1,-7.4 -18.6,-10.4 z m -215.1,71.5 c -0.4,0.1 -0.8,0.2 -1.2,0.4 1.8,9.4 2.9,18.3 2.9,18.3 13.1,-0.6 21,15.5 8.5,35 13,2.1 19.6,18.5 22.8,34.9 7.8,-18.3 19.6,-34.6 34.4,-47.8 7.6,-6.7 16.8,-10.8 25.9,-14.9 10.9,-4.9 30.7,-9.3 30.7,-9.3 8.7,-11.2 10.5,-26.3 12.5,-40.6 1.3,-9.1 1.5,-18.3 2.8,-27.3 0.3,-1.6 0.5,-3.7 0.7,-5.9 l -0.2,-0.1 c -1.1,0.9 -2.8,0.8 -3.8,-0.4 -0.1,-0.1 -0.1,-0.2 -0.2,-0.3 -2.1,-4.1 -3.8,-8.4 -5,-12.9 h 0.2 c -5.1,-0.9 -10.6,-3.3 -12.2,-8.9 -25.7,6.9 -47.2,22.2 -67.3,40.5 -10.9,9.9 -21.6,20.1 -33.3,28.8 -5.6,4.4 -11.5,8.4 -18.2,10.5 z m 559.3,17 c -3.4,-14.7 -7.6,-30.1 -16.2,-42.3 -8.6,-12.2 -20.3,-20.1 -33.6,-24.8 -27.1,-9.5 -56,-2.3 -81.9,8.3 1.8,1 3.4,2.3 4.9,3.7 3.9,3.9 5.8,9.4 4.9,14.9 l 0.7,0.2 c 8.8,2.4 10.9,9.4 9.6,17 l 0.7,0.2 c 8,1.4 9.1,10.7 7.4,19 l 2.1,0.9 c 5.5,5.1 4.7,17.5 -0.4,22.8 -2.1,2.1 -4.9,3.3 -7.9,3.4 l 0.5,1.4 c -2.2,10.6 -9.8,15.3 -16.9,16.2 l -0.9,13.6 c 1.4,0.7 2.8,1.6 4.1,2.6 5.1,4.1 3.4,13.4 3.4,20.1 v 21.8 l -2,-0.4 c 18.7,12.3 14,32.8 14.8,47.6 0.9,13.7 0.8,27.4 -0.5,41 l 40.8,-0.5 24.2,-0.3 c 7.6,-0.1 15.7,0.7 23.1,-0.8 8.3,-1.7 11.8,-8.5 14.2,-16.6 2.2,-7.4 4.2,-14.9 5.8,-22.5 3.5,-16.1 5.7,-32.5 6.8,-49 2.3,-32.6 -0.3,-65.5 -7.7,-97.5 z m -638,163.6 c -1.9,-13.9 -8.8,-26.9 -9.6,-41.2 -0.4,-10.7 -0.1,-21.4 0.9,-32.1 1.3,-15.7 3.2,-29 12.1,-42.7 1.9,-2.9 4.1,-5.6 6.6,-8 v 0 c 0,0 -13,-44 -8.1,-46.8 -0.9,-0.3 -1.8,-0.6 -2.6,-1.1 -7.7,3.3 -15.1,7.3 -22,12 -23.3,15.8 -41.5,39.3 -53.5,66.1 -6.1,13.6 -10.7,27.8 -13.9,42.4 -3,13.6 -6,28.7 -5,42.9 1,15 8.1,27.8 21.9,31.9 6.8,2 14.1,1.6 21.1,1.7 l 24.4,0.2 24.4,0.2 c 2,-9.1 4.4,-17.9 3.3,-25.5 z"
         fill="#f26f21"
         id="path3" />
      <path
         d="m 411.8,333.9 c 18,2.5 44.7,27 55.4,40.9 16.6,21.5 31,50.2 41,86.6 10,36.4 20.3,53 25.2,52.8 4.9,-0.2 12.4,-7.2 16.4,-24.3 4,-17.1 3.8,-32.9 4.5,-47.7 0.3,-5.8 -0.8,-15.7 3.6,-20.3 4.8,-5 14.9,-2.3 21.1,-1.3 17.4,3 38.7,2.3 53.9,11.4 20.4,12.2 15.4,33.4 16.3,48.5 2,35.2 0.8,44 -1.6,52.4 -1.9,6.5 -4.5,28.6 -18.9,29.3 -14.5,0.6 1.4,-20.9 8.6,-7.3 4.1,7.7 -4.7,20.8 -9.7,24.7 M 114.4,553.9 c -7.8,-18 5.8,-39.8 3.5,-56.1 -1.9,-13.9 -8.8,-26.9 -9.6,-41.2 -0.4,-10.7 -0.1,-21.4 0.9,-32.1 1.3,-15.7 3.2,-29 12.1,-42.7 8.3,-13 22.6,-19.6 35.2,-28 11.7,-7.8 28.6,-17.2 41.8,-17.8 13.2,-0.6 21,15.5 8.5,35 24.5,3.9 26.1,58.7 25.7,68.2 -0.4,8.8 -1,32.9 -11,37 -8.5,3.5 -8.4,-3.3 -7.6,-10.3 1.4,-12.8 5.9,-26.3 8.8,-38.8 6,-26.2 21.1,-51.1 41.4,-68.9 7.6,-6.7 16.8,-10.8 25.9,-14.9 10.9,-4.9 30.7,-9.3 30.7,-9.3"
         stroke="#132144"
         stroke-width="7"
         stroke-linecap="round"
         stroke-linejoin="round"
         fill="none"
         id="path5" />
      <path
         d="m 562,419.2 c 0,0 -3.8,-27.9 3.5,-33.8 7.3,-5.9 24.1,-2.8 38.9,-1.9 14.8,0.9 23.5,3.8 28.6,7.9 5.1,4.1 3.4,13.4 3.4,20.1 v 21.8 m -69.9,-64.9 c -18.3,-10.5 -26.9,-35.8 -15.8,-54.1 8.9,-14.5 41.8,-31 53.3,-10.2 8.6,15.7 -16.4,17.5 -25.4,14.4 7.1,1.3 14,13.1 14,24.1"
         stroke="#132144"
         stroke-width="7"
         stroke-linecap="round"
         stroke-linejoin="round"
         fill="none"
         id="path7" />
      <path
         d="m 572.1,285.2 c 9.2,-4 18.7,-7.5 28.4,-10.4 10.2,-2.8 20.8,-3.8 28.6,4.3 12.7,13.1 -1,31.6 -11.7,42.5 -9.2,9.4 -19.9,9 -22.4,0.1"
         stroke="#132144"
         stroke-width="7"
         stroke-linecap="round"
         stroke-linejoin="round"
         fill="none"
         id="path9" />
      <path
         d="m 550.1,313.2 c 0,-31.5 -0.1,-62.1 8.4,-92.1 1.7,-5.9 4.9,-26.1 19,-19 7.9,4 3.2,28.1 2.7,36 -0.7,10.6 -0.8,32.5 -0.8,42.8 m 26.8,14.2 c -1.8,1.7 -3.2,3.8 -4.3,6 m 32.8,-6.9 c 16.5,4.6 9.6,25.1 0.5,36.1 -9.1,11 -18.1,14.2 -24.2,11.4 -5,-2.3 -8.9,-8.3 -3.7,-13.7"
         stroke="#132144"
         stroke-width="7"
         stroke-linecap="round"
         stroke-linejoin="round"
         fill="none"
         id="path11" />
      <path
         d="m 645.1,311.5 c 12.2,2.1 8.3,22.8 3.1,29.7 -3.6,4.8 -10,10.8 -17,9.1 -5.1,-1.2 -7.8,-6 -5.2,-11.2"
         stroke="#132144"
         stroke-width="7"
         stroke-linecap="round"
         stroke-linejoin="round"
         fill="none"
         id="path13" />
      <path
         d="m 654.5,331.3 c 5.5,5.1 4.7,17.5 -0.4,22.8 -5.2,5.5 -17.9,4.5 -15.1,-4.9 m 7.8,9.7 c -2.6,12.5 -12.7,16.8 -20.7,16.4"
         stroke="#132144"
         stroke-width="7"
         stroke-linecap="round"
         stroke-linejoin="round"
         fill="none"
         id="path15" />
      <line
         x1="629.79999"
         y1="375.29999"
         x2="629"
         y2="388"
         stroke="#132144"
         stroke-width="7"
         stroke-linecap="round"
         stroke-linejoin="round"
         fill="none"
         id="line17" />
      <path
         d="m 127.8,373.8 c 0,0 -13,-44 -8.1,-46.8 4.9,-2.8 27.1,-14.5 39.5,-20.4 5.9,-2.8 23.7,-12.9 29,-10.8 5.3,2.1 10,40.1 10,40.1"
         stroke="#132144"
         stroke-width="7"
         stroke-linecap="round"
         stroke-linejoin="round"
         fill="none"
         id="path19" />
      <path
         d="m 187.7,293.4 c 4.8,-13.9 -1.4,-38.5 8.3,-49.1 12.5,-13.5 35.7,-27.6 27.8,-36.2 -10,-10.8 -22.6,1.7 -31.6,6.5 -9.9,5.3 -19.5,10.8 -30.8,17.5 -47.1,-19.2 -66.9,-8.6 -93.6,-2.8 -10.1,2.2 -32.8,10.2 -16.1,20.2 13.4,7.9 35,9.4 43,23.2 4.9,8.5 8.5,19.9 10.9,29.4 1.6,6.5 4.9,22.4 14.2,25 M 49.7,237.3 c 8.8,-2.5 31.3,5 36.8,8.5 M 73,228.6 c 9.7,1.8 20.8,7 28.5,10.4 m -2.6,-14.7 c 7.8,2.4 15.7,7.4 23.3,10.4"
         stroke="#132144"
         stroke-width="7"
         stroke-linecap="round"
         stroke-linejoin="round"
         fill="none"
         id="path21" />
      <path
         d="m 669.8,107.2 c -5.3,-39.9 -27.4,-67.4 -62,-77.3 -19.1,-5.4 -37.6,-5.9 -53.7,-1.2 -18,5.2 -32.4,16.3 -42.8,33.1 -10.3,16.5 -16,35.4 -16.4,54.9 -0.4,20.3 5.3,39.4 16.5,55.2 11.7,16.6 29,26.4 48.6,27.4 4.7,0.2 9.4,0.4 14.1,0.4 15,0 30.1,-1.7 43.5,-8.3 18.3,-9 30.8,-19.8 39.3,-34.1 7.7,-13 15.2,-32.9 12.9,-50.1 z"
         fill="#0db14b"
         id="path23" />
      <path
         d="m 539.4,39.5 c 0,0 9.5,25 13.1,35.4 3.8,10.9 16.7,40.3 16.7,40.3 0,0 43.9,9.1 55.6,11.9 11.4,2.7 23.6,4.7 33.7,8.2 m -88.8,-21.6 c 0,0 72.3,-37.4 82.8,-44.9 m -168,2.2 h -8.6"
         stroke="#132144"
         stroke-width="7"
         stroke-linecap="round"
         stroke-linejoin="round"
         fill="none"
         id="path25" />
      <line
         x1="609.20001"
         y1="3.5"
         x2="619"
         y2="3.9000001"
         stroke="#132144"
         stroke-width="7"
         stroke-linecap="round"
         stroke-linejoin="round"
         fill="none"
         id="line27" />
      <line
         x1="686.20001"
         y1="98.800003"
         x2="696.59998"
         y2="98.5"
         stroke="#132144"
         stroke-width="7"
         stroke-linecap="round"
         stroke-linejoin="round"
         fill="none"
         id="line29" />
      <path
         d="m 320.6,333.9 c 8.7,-11.2 10.5,-26.3 12.5,-40.6 1.3,-9.1 1.5,-18.3 2.8,-27.3 0.9,-5.9 1.8,-19 1.8,-19 0,0 -25.8,2.6 -22.3,-16.1 1.9,-10.3 14.8,-22.1 25.7,-17.8 2.6,-21.2 2.2,-42.6 22.4,-55.3 22.7,-14.3 47.6,12.4 63.6,27.5 11.2,10.6 21.4,22.3 30.6,34.7 -13.3,1.7 -44.6,0.3 -44.6,0.3 -1.3,24.6 -4.6,86.5 -4.6,86.5 6.2,20.4 4.1,43.6 -5.6,44 -9.7,0.4 -15.1,-16.7 -22.6,-25 -3.8,10.1 -16.4,26.4 -29.5,26.4 -13.1,0 -25.5,-10.2 -30.2,-18.3 z m 12.1,-33.6 c 16,17.3 53.4,14.9 72.5,5.2 m -79.4,-75.1 c 2.3,-0.2 4.6,0.8 6,2.6 m 37.4,-3.9 c 2.5,4.4 7.6,5.4 12.1,3.5 M 375,201.8 v -3.6 m 19,1.1 V 195 m -16.7,165.7 c 1,10 -4.2,24.7 -6,34.4 -2.8,15.2 -7.8,29.6 -7.9,41.7 -0.1,12.1 2.6,18.2 9.3,23 6.7,4.8 9.4,8 8.9,16.7 -0.6,11.9 -5.5,25 -10.4,35.7 -3.1,6.7 -8.9,14 -2.1,19.8 8.1,6.8 18,0.8 21.1,15 1.8,8.5 -1.1,19.5 -3.3,27.5 m 27.8,-154.4 c 12.8,0 23.9,-1.2 36.2,0.6"
         stroke="#132144"
         stroke-width="7"
         stroke-linecap="round"
         stroke-linejoin="round"
         fill="none"
         id="path31" />
      <line
         x1="441.70001"
         y1="413.29999"
         x2="440.79999"
         y2="431.39999"
         stroke="#132144"
         stroke-width="7"
         stroke-linecap="round"
         stroke-linejoin="round"
         fill="none"
         id="line33" />
      <path
         d="m 431.3,411.6 c 0,8 1.6,17.6 -0.9,25"
         stroke="#132144"
         stroke-width="7"
         stroke-linecap="round"
         stroke-linejoin="round"
         fill="none"
         id="path35" />
      <line
         x1="375.79999"
         y1="427.70001"
         x2="379.29999"
         y2="426"
         stroke="#132144"
         stroke-width="7"
         stroke-linecap="round"
         stroke-linejoin="round"
         fill="none"
         id="line37" />
      <line
         x1="392.10001"
         y1="485.5"
         x2="395.20001"
         y2="484.70001"
         stroke="#132144"
         stroke-width="7"
         stroke-linecap="round"
         stroke-linejoin="round"
         fill="none"
         id="line39" />
      <path
         d="m 403.9,551 -2.6,0.2"
         stroke="#132144"
         stroke-width="7"
         stroke-linecap="round"
         stroke-linejoin="round"
         fill="none"
         id="path41" />
      <path
         d="m 327.6,246.4 c 1.2,4.5 2.9,8.8 5,12.9 0.8,1.3 2.5,1.6 3.7,0.8 0.1,-0.1 0.3,-0.2 0.4,-0.3 0.6,-6 1.1,-12.9 1.1,-12.9 -3.4,0.3 -6.9,0.1 -10.2,-0.5 z m 72.1,-96.9 -22.1,-2.4 c -6.5,-0.7 -13.1,-1.8 -19.7,-0.5 -8.8,1.7 -21.4,8.6 -22.5,18.7 -0.3,2 0.2,4 1.3,5.6 0.1,0.2 0.3,0.4 0.5,0.6 -11,7.2 -11.5,24.4 -12.2,36.6 -0.2,2.8 -0.3,5.6 -0.3,8.4 2.9,-2.4 6.3,-3.9 10,-4.5 1.5,3.4 3.3,6.8 5.2,10 0.8,1.2 2.4,1.6 3.6,0.8 0.7,-0.5 1.2,-1.3 1.2,-2.1 -0.1,-6.3 1.3,-12.5 4.3,-18 2.4,-4.4 5.6,-8.3 7.4,-13.1 1.8,-4.8 1.2,-10.9 -2,-14.7 5.2,-1.3 10.3,-5.6 13.6,-9.4 4.8,-5.4 9,-8.8 16.5,-8.8 5.8,0 11.4,0.6 16.5,-2.5 2.3,-1.3 1.2,-4.4 -1.3,-4.7 z"
         fill="#132144"
         id="path43" />
      <line
         x1="566.5"
         y1="381.20001"
         x2="566.5"
         y2="368.39999"
         stroke="#132144"
         stroke-width="7"
         stroke-linecap="round"
         stroke-linejoin="round"
         fill="none"
         id="line45" />
      <path
         d="m 155,281.3 c -3,-0.2 -5.9,1.1 -7.8,3.5"
         stroke="#132144"
         stroke-width="7"
         stroke-linecap="round"
         stroke-linejoin="round"
         fill="none"
         id="path47" />
      <path
         d="m 209.5,82.2 c -0.1,-0.6 -0.1,-1.3 -0.1,-2.1 C 208.7,69 207.5,50.4 196.6,45.7 180.1,38.6 166.7,59.9 163,66.6 c -3.4,6.2 -6.2,13.5 -9.2,21.2 -7.3,19 -14.9,38.6 -31.6,41.5 -12.7,2.2 -16.9,-6.1 -22.8,-19.7 C 95,99.4 90.5,88.9 79.6,86.1 65.3,82.5 44,89.3 24,142.1 c -0.2,0.5 -0.3,1.1 -0.2,1.6 l 9.5,88.4 c 0.2,1.8 1.7,3.1 3.5,3.1 0.2,0 0.4,0 0.6,-0.1 l 176,-32.2 c 1.7,-0.3 3,-1.9 2.9,-3.6 0,-0.9 -5.3,-96 -6.8,-117.1 z"
         fill="#0a67b0"
         id="path49" />
      <path
         d="m 243.6,197.3 c 0,0 -77.1,10.6 -93.8,13.4 -27.5,4.5 -113.1,21.1 -113.1,21.1 0,0 -15,-140 -18.6,-172.4 -1,-9.1 -2.7,-31.2 -2.7,-31.2"
         stroke="#132144"
         stroke-width="7"
         stroke-linecap="round"
         stroke-linejoin="round"
         fill="none"
         id="path51" />
      <path
         d="M 4.8,40.6 C 8.2,36.3 15.4,28.2 15.4,28.2 l 13.4,8.3 m 207.8,151.8 c 3.2,2.7 6.6,4.9 10,7.5 -2.1,4.1 -5,8.3 -6.3,12.6"
         stroke="#132144"
         stroke-width="7"
         stroke-linecap="round"
         stroke-linejoin="round"
         fill="none"
         id="path53" />
      <line
         x1="9.1000004"
         y1="80.5"
         x2="3.5"
         y2="80.5"
         stroke="#132144"
         stroke-width="7"
         stroke-linecap="round"
         stroke-linejoin="round"
         fill="none"
         id="line55" />
      <line
         x1="19.6"
         y1="172.89999"
         x2="14"
         y2="172.89999"
         stroke="#132144"
         stroke-width="7"
         stroke-linecap="round"
         stroke-linejoin="round"
         fill="none"
         id="line57" />
      <line
         x1="14.7"
         y1="122.7"
         x2="9.1000004"
         y2="122.7"
         stroke="#132144"
         stroke-width="7"
         stroke-linecap="round"
         stroke-linejoin="round"
         fill="none"
         id="line59" />
      <line
         x1="23.4"
         y1="214.3"
         x2="17.799999"
         y2="214.3"
         stroke="#132144"
         stroke-width="7"
         stroke-linecap="round"
         stroke-linejoin="round"
         fill="none"
         id="line61" />
    </svg>
  </g>
</svg>
